<?xml version="1.0" encoding="UTF-8" standalone="no"?>
<!DOCTYPE svg PUBLIC "-//W3C//DTD SVG 1.1//EN" "http://www.w3.org/Graphics/SVG/1.1/DTD/svg11.dtd">
<svg width="100%" height="100%" viewBox="0 0 100 100" version="1.1" xmlns="http://www.w3.org/2000/svg" xmlns:xlink="http://www.w3.org/1999/xlink" xml:space="preserve" xmlns:serif="http://www.serif.com/" style="fill-rule:evenodd;clip-rule:evenodd;stroke-linejoin:round;stroke-miterlimit:2;">
    <path d="M77.514,73.565C77.846,73.565 78.147,73.698 78.37,73.92C78.585,74.135 78.718,74.44 78.718,74.772L78.718,86.784C78.718,87.116 78.581,87.417 78.362,87.635C78.143,87.854 77.839,87.991 77.511,87.991L56.116,87.991C55.787,87.991 55.487,87.854 55.268,87.635C55.049,87.417 54.912,87.112 54.912,86.784L54.912,74.772C54.912,74.44 55.049,74.139 55.268,73.92C55.487,73.702 55.791,73.565 56.119,73.565L77.514,73.565Z" style="fill:white;"/>
    <g transform="matrix(1,0,0,1,-0.129534,41.7098)">
        <path d="M56.249,28.855L77.644,28.855C78.796,28.855 79.847,29.328 80.609,30.089C81.378,30.859 81.847,31.91 81.847,33.062L81.847,45.074C81.847,46.23 81.374,47.285 80.613,48.047C79.851,48.809 78.8,49.281 77.64,49.281L56.245,49.281C55.085,49.281 54.034,48.809 53.276,48.047C52.514,47.285 52.042,46.234 52.042,45.074L52.042,33.062C52.042,31.906 52.514,30.851 53.276,30.089C54.038,29.328 55.089,28.855 56.249,28.855ZM77.644,31.855L56.249,31.855C55.921,31.855 55.616,31.992 55.397,32.21C55.179,32.429 55.042,32.73 55.042,33.062L55.042,45.074C55.042,45.402 55.179,45.707 55.397,45.926C55.616,46.144 55.917,46.281 56.245,46.281L77.64,46.281C77.968,46.281 78.273,46.144 78.492,45.926C78.71,45.707 78.847,45.406 78.847,45.074L78.847,33.062C78.847,32.73 78.714,32.425 78.499,32.21C78.277,31.988 77.976,31.855 77.644,31.855Z"/>
    </g>
    <path d="M43.706,52.71C44.038,52.71 44.339,52.843 44.562,53.065C44.776,53.28 44.909,53.585 44.909,53.917L44.909,65.929C44.909,66.261 44.773,66.562 44.554,66.781C44.335,66.999 44.03,67.136 43.702,67.136L22.307,67.136C21.979,67.136 21.678,66.999 21.46,66.781C21.241,66.562 21.104,66.257 21.104,65.929L21.104,53.917C21.104,53.585 21.241,53.284 21.46,53.065C21.678,52.847 21.983,52.71 22.311,52.71L43.706,52.71Z" style="fill:white;"/>
    <g transform="matrix(1,-0,0,1,-33.9378,20.8549)">
        <path d="M56.249,28.855L77.644,28.855C78.796,28.855 79.847,29.328 80.609,30.089C81.378,30.859 81.847,31.91 81.847,33.062L81.847,45.074C81.847,46.23 81.374,47.285 80.613,48.047C79.851,48.809 78.8,49.281 77.64,49.281L56.245,49.281C55.085,49.281 54.034,48.809 53.276,48.047C52.514,47.285 52.042,46.234 52.042,45.074L52.042,33.062C52.042,31.906 52.514,30.851 53.276,30.089C54.038,29.328 55.089,28.855 56.249,28.855ZM77.644,31.855L56.249,31.855C55.921,31.855 55.616,31.992 55.397,32.21C55.179,32.429 55.042,32.73 55.042,33.062L55.042,45.074C55.042,45.402 55.179,45.707 55.397,45.926C55.616,46.144 55.917,46.281 56.245,46.281L77.64,46.281C77.968,46.281 78.273,46.144 78.492,45.926C78.71,45.707 78.847,45.406 78.847,45.074L78.847,33.062C78.847,32.73 78.714,32.425 78.499,32.21C78.277,31.988 77.976,31.855 77.644,31.855Z"/>
    </g>
    <g transform="matrix(1,-0,0,1,1.42109e-14,-0.5)">
        <path d="M41.179,79.059C40.558,78.516 40.495,77.571 41.038,76.95C41.581,76.329 42.527,76.266 43.148,76.809L47.952,81.028C48.574,81.571 48.636,82.516 48.093,83.137L47.949,83.282L43.148,87.497C42.527,88.039 41.581,87.977 41.038,87.356C40.495,86.735 40.558,85.789 41.179,85.246L42.991,83.657L9.792,83.657C8.476,83.657 7.277,83.118 6.41,82.25L6.32,82.149C5.507,81.29 5.003,80.133 5.003,78.868L5.003,64.571C5.003,63.254 5.543,62.055 6.41,61.188C7.277,60.321 8.476,59.782 9.792,59.782L13.082,59.782C13.91,59.782 14.582,60.454 14.582,61.282C14.582,62.11 13.91,62.782 13.082,62.782L9.792,62.782C9.304,62.782 8.855,62.985 8.531,63.309C8.207,63.633 8.003,64.079 8.003,64.571L8.003,78.868C8.003,79.333 8.183,79.758 8.468,80.071L8.527,80.129C8.851,80.454 9.3,80.657 9.789,80.657L42.988,80.657L41.175,79.063L41.179,79.059Z" style="fill-rule:nonzero;"/>
    </g>
    <path d="M56.859,54.594C57.48,54.051 58.425,54.114 58.968,54.735C59.511,55.356 59.449,56.301 58.828,56.844L57.015,58.434L90.214,58.434C90.706,58.434 91.156,58.235 91.48,57.91C91.804,57.586 92.003,57.137 92.003,56.645L92.003,42.348C92.003,41.856 91.804,41.406 91.48,41.082C91.156,40.758 90.706,40.559 90.214,40.559L86.925,40.559C86.097,40.559 85.425,39.887 85.425,39.059C85.425,38.231 86.097,37.559 86.925,37.559L90.214,37.559C91.531,37.559 92.726,38.098 93.589,38.965C94.46,39.836 94.999,41.031 94.999,42.348L94.999,56.645C94.999,57.961 94.46,59.156 93.593,60.02C92.722,60.891 91.527,61.43 90.21,61.43L57.011,61.43L58.824,63.024C59.445,63.567 59.508,64.512 58.965,65.133C58.422,65.754 57.476,65.817 56.855,65.274L52.054,61.059L51.91,60.914C51.367,60.293 51.429,59.348 52.05,58.805L56.855,54.59L56.859,54.594Z"/>
    <path d="M77.644,31.855C77.976,31.855 78.277,31.988 78.499,32.21C78.714,32.425 78.847,32.73 78.847,33.062L78.847,45.074C78.847,45.406 78.71,45.707 78.492,45.926C78.273,46.144 77.968,46.281 77.64,46.281L56.245,46.281C55.917,46.281 55.616,46.144 55.397,45.926C55.179,45.707 55.042,45.402 55.042,45.074L55.042,33.062C55.042,32.73 55.179,32.429 55.397,32.21C55.616,31.992 55.921,31.855 56.249,31.855L77.644,31.855Z" style="fill:white;"/>
    <path d="M56.249,28.855L77.644,28.855C78.796,28.855 79.847,29.328 80.609,30.089C81.378,30.859 81.847,31.91 81.847,33.062L81.847,45.074C81.847,46.23 81.374,47.285 80.613,48.047C79.851,48.809 78.8,49.281 77.64,49.281L56.245,49.281C55.085,49.281 54.034,48.809 53.276,48.047C52.514,47.285 52.042,46.234 52.042,45.074L52.042,33.062C52.042,31.906 52.514,30.851 53.276,30.089C54.038,29.328 55.089,28.855 56.249,28.855ZM77.644,31.855L56.249,31.855C55.921,31.855 55.616,31.992 55.397,32.21C55.179,32.429 55.042,32.73 55.042,33.062L55.042,45.074C55.042,45.402 55.179,45.707 55.397,45.926C55.616,46.144 55.917,46.281 56.245,46.281L77.64,46.281C77.968,46.281 78.273,46.144 78.492,45.926C78.71,45.707 78.847,45.406 78.847,45.074L78.847,33.062C78.847,32.73 78.714,32.425 78.499,32.21C78.277,31.988 77.976,31.855 77.644,31.855Z"/>
    <path d="M43.706,11C44.038,11 44.339,11.133 44.562,11.356C44.776,11.57 44.909,11.875 44.909,12.207L44.909,24.219C44.909,24.551 44.773,24.852 44.554,25.071C44.335,25.289 44.03,25.426 43.702,25.426L22.307,25.426C21.979,25.426 21.678,25.289 21.46,25.071C21.241,24.852 21.104,24.547 21.104,24.219L21.104,12.207C21.104,11.875 21.241,11.574 21.46,11.356C21.678,11.137 21.983,11 22.311,11L43.706,11Z" style="fill:white;"/>
    <g transform="matrix(1,-0,0,1,-33.9378,-20.8549)">
        <path d="M56.249,28.855L77.644,28.855C78.796,28.855 79.847,29.328 80.609,30.089C81.378,30.859 81.847,31.91 81.847,33.062L81.847,45.074C81.847,46.23 81.374,47.285 80.613,48.047C79.851,48.809 78.8,49.281 77.64,49.281L56.245,49.281C55.085,49.281 54.034,48.809 53.276,48.047C52.514,47.285 52.042,46.234 52.042,45.074L52.042,33.062C52.042,31.906 52.514,30.851 53.276,30.089C54.038,29.328 55.089,28.855 56.249,28.855ZM77.644,31.855L56.249,31.855C55.921,31.855 55.616,31.992 55.397,32.21C55.179,32.429 55.042,32.73 55.042,33.062L55.042,45.074C55.042,45.402 55.179,45.707 55.397,45.926C55.616,46.144 55.917,46.281 56.245,46.281L77.64,46.281C77.968,46.281 78.273,46.144 78.492,45.926C78.71,45.707 78.847,45.406 78.847,45.074L78.847,33.062C78.847,32.73 78.714,32.425 78.499,32.21C78.277,31.988 77.976,31.855 77.644,31.855Z"/>
    </g>
    <path d="M41.179,35.977C40.558,35.434 40.495,34.489 41.038,33.868C41.581,33.247 42.527,33.184 43.148,33.727L47.952,37.946C48.574,38.489 48.636,39.434 48.093,40.055L47.949,40.2L43.148,44.415C42.527,44.957 41.581,44.895 41.038,44.274C40.495,43.653 40.558,42.707 41.179,42.164L42.991,40.575L9.792,40.575C8.476,40.575 7.277,40.036 6.41,39.168L6.32,39.067C5.507,38.208 5.003,37.051 5.003,35.786L5.003,21.489C5.003,20.176 5.543,18.977 6.41,18.11C7.281,17.239 8.48,16.7 9.792,16.7L13.082,16.7C13.91,16.7 14.582,17.372 14.582,18.2C14.582,19.028 13.91,19.7 13.082,19.7L9.792,19.7C9.3,19.7 8.851,19.899 8.527,20.223C8.203,20.547 8.003,20.993 8.003,21.489L8.003,35.786C8.003,36.251 8.183,36.676 8.468,36.989L8.527,37.047C8.851,37.372 9.3,37.575 9.789,37.575L42.988,37.575L41.175,35.981L41.179,35.977Z"/>
    <g transform="matrix(0.330911,0,0,0.330911,-46.1196,-1.09161)">
        <g transform="matrix(0.124235,0,0,0.124235,217.656,37.2292)">
            <g>
                <path d="M293.629,127.806L287.834,114.067C307.68,69.211 306.364,67.878 302.51,63.987L277.157,39.217L274.641,37.097L271.704,37.097C270.155,37.097 265.531,37.097 226.992,54.577L212.808,48.858C194.476,3.414 192.596,3.414 187.228,3.414L151.463,3.414C146.101,3.414 144.017,3.408 127.015,49.02L112.892,54.754C86.848,43.757 71.574,38.19 67.452,38.19L64.071,38.295L36.801,65.032C32.663,68.923 31.219,70.295 52.203,114.457L46.429,128.148C0,146.097 0,147.838 0,153.33L0,188.398C0,193.899 0,195.838 46.585,212.525L52.358,226.192C32.515,271.024 33.848,272.37 37.703,276.224L63.056,301.024L65.578,303.192L68.529,303.192C70.054,303.192 74.621,303.192 113.214,285.676L127.373,291.434C145.708,336.872 147.591,336.861 152.971,336.861L188.742,336.861C194.212,336.861 196.152,336.861 213.205,291.272L227.4,285.532C253.414,296.532 268.653,302.117 272.749,302.117L276.153,302.021L303.632,275.12C307.541,271.175 308.91,269.811 288.043,225.832L293.777,212.13C340.273,194.163 340.273,192.277 340.273,186.909L340.273,151.88C340.268,146.361 340.268,144.434 293.629,127.806ZM170.128,228.474C137.33,228.474 110.624,202.287 110.624,170.11C110.624,137.957 137.331,111.795 170.128,111.795C202.908,111.795 229.558,137.963 229.558,170.11C229.552,202.287 202.902,228.474 170.128,228.474Z" style="fill-rule:nonzero;"/>
            </g>
        </g>
        <g transform="matrix(0.124235,0,0,0.124235,320.099,100.331)">
            <g>
                <path d="M293.629,127.806L287.834,114.067C307.68,69.211 306.364,67.878 302.51,63.987L277.157,39.217L274.641,37.097L271.704,37.097C270.155,37.097 265.531,37.097 226.992,54.577L212.808,48.858C194.476,3.414 192.596,3.414 187.228,3.414L151.463,3.414C146.101,3.414 144.017,3.408 127.015,49.02L112.892,54.754C86.848,43.757 71.574,38.19 67.452,38.19L64.071,38.295L36.801,65.032C32.663,68.923 31.219,70.295 52.203,114.457L46.429,128.148C0,146.097 0,147.838 0,153.33L0,188.398C0,193.899 0,195.838 46.585,212.525L52.358,226.192C32.515,271.024 33.848,272.37 37.703,276.224L63.056,301.024L65.578,303.192L68.529,303.192C70.054,303.192 74.621,303.192 113.214,285.676L127.373,291.434C145.708,336.872 147.591,336.861 152.971,336.861L188.742,336.861C194.212,336.861 196.152,336.861 213.205,291.272L227.4,285.532C253.414,296.532 268.653,302.117 272.749,302.117L276.153,302.021L303.632,275.12C307.541,271.175 308.91,269.811 288.043,225.832L293.777,212.13C340.273,194.163 340.273,192.277 340.273,186.909L340.273,151.88C340.268,146.361 340.268,144.434 293.629,127.806ZM170.128,228.474C137.33,228.474 110.624,202.287 110.624,170.11C110.624,137.957 137.331,111.795 170.128,111.795C202.908,111.795 229.558,137.963 229.558,170.11C229.552,202.287 202.902,228.474 170.128,228.474Z" style="fill-rule:nonzero;"/>
            </g>
        </g>
        <g transform="matrix(0.124235,0,0,0.124235,217.266,163.434)">
            <g>
                <path d="M293.629,127.806L287.834,114.067C307.68,69.211 306.364,67.878 302.51,63.987L277.157,39.217L274.641,37.097L271.704,37.097C270.155,37.097 265.531,37.097 226.992,54.577L212.808,48.858C194.476,3.414 192.596,3.414 187.228,3.414L151.463,3.414C146.101,3.414 144.017,3.408 127.015,49.02L112.892,54.754C86.848,43.757 71.574,38.19 67.452,38.19L64.071,38.295L36.801,65.032C32.663,68.923 31.219,70.295 52.203,114.457L46.429,128.148C0,146.097 0,147.838 0,153.33L0,188.398C0,193.899 0,195.838 46.585,212.525L52.358,226.192C32.515,271.024 33.848,272.37 37.703,276.224L63.056,301.024L65.578,303.192L68.529,303.192C70.054,303.192 74.621,303.192 113.214,285.676L127.373,291.434C145.708,336.872 147.591,336.861 152.971,336.861L188.742,336.861C194.212,336.861 196.152,336.861 213.205,291.272L227.4,285.532C253.414,296.532 268.653,302.117 272.749,302.117L276.153,302.021L303.632,275.12C307.541,271.175 308.91,269.811 288.043,225.832L293.777,212.13C340.273,194.163 340.273,192.277 340.273,186.909L340.273,151.88C340.268,146.361 340.268,144.434 293.629,127.806ZM170.128,228.474C137.33,228.474 110.624,202.287 110.624,170.11C110.624,137.957 137.331,111.795 170.128,111.795C202.908,111.795 229.558,137.963 229.558,170.11C229.552,202.287 202.902,228.474 170.128,228.474Z" style="fill-rule:nonzero;"/>
            </g>
        </g>
        <g transform="matrix(0.124235,0,0,0.124235,320.099,226.536)">
            <g>
                <path d="M293.629,127.806L287.834,114.067C307.68,69.211 306.364,67.878 302.51,63.987L277.157,39.217L274.641,37.097L271.704,37.097C270.155,37.097 265.531,37.097 226.992,54.577L212.808,48.858C194.476,3.414 192.596,3.414 187.228,3.414L151.463,3.414C146.101,3.414 144.017,3.408 127.015,49.02L112.892,54.754C86.848,43.757 71.574,38.19 67.452,38.19L64.071,38.295L36.801,65.032C32.663,68.923 31.219,70.295 52.203,114.457L46.429,128.148C0,146.097 0,147.838 0,153.33L0,188.398C0,193.899 0,195.838 46.585,212.525L52.358,226.192C32.515,271.024 33.848,272.37 37.703,276.224L63.056,301.024L65.578,303.192L68.529,303.192C70.054,303.192 74.621,303.192 113.214,285.676L127.373,291.434C145.708,336.872 147.591,336.861 152.971,336.861L188.742,336.861C194.212,336.861 196.152,336.861 213.205,291.272L227.4,285.532C253.414,296.532 268.653,302.117 272.749,302.117L276.153,302.021L303.632,275.12C307.541,271.175 308.91,269.811 288.043,225.832L293.777,212.13C340.273,194.163 340.273,192.277 340.273,186.909L340.273,151.88C340.268,146.361 340.268,144.434 293.629,127.806ZM170.128,228.474C137.33,228.474 110.624,202.287 110.624,170.11C110.624,137.957 137.331,111.795 170.128,111.795C202.908,111.795 229.558,137.963 229.558,170.11C229.552,202.287 202.902,228.474 170.128,228.474Z" style="fill-rule:nonzero;"/>
            </g>
        </g>
    </g>
</svg>
